<svg width="153" height="29" viewBox="0 0 153 29" fill="none" xmlns="http://www.w3.org/2000/svg">
<path fill-rule="evenodd" clip-rule="evenodd" d="M12.2829 25.73C12.3121 25.7601 12.3523 25.7771 12.3943 25.7771H18.672C18.8096 25.7771 18.8791 25.6114 18.7828 25.5132L6.56096 13.0598V12.6816L18.7816 0.275859C18.8783 0.177744 18.8088 0.0117102 18.671 0.0117102H12.3938C12.3521 0.0117102 12.3122 0.0284626 12.283 0.0581992L0.177776 12.391C-0.0583367 12.6315 -0.0593957 13.0165 0.17539 13.2584L12.2829 25.73ZM26.8377 25.7301L26.8654 25.7015L39.1974 12.9987C39.2917 12.9015 39.2913 12.7467 39.1964 12.65L26.8644 0.0864077L26.8368 0.0581951C26.8076 0.0284612 26.7677 0.0117102 26.726 0.0117102H26.6865H20.1032H19.8782C19.7405 0.0117102 19.671 0.177739 19.7677 0.275855L19.9256 0.436151L32.093 12.7879V12.8711V12.9549L19.9252 25.3531L19.7681 25.5131C19.6717 25.6113 19.7413 25.7771 19.8789 25.7771H20.1032H26.6865H26.7264C26.7683 25.7771 26.8084 25.7601 26.8377 25.7301ZM32.5202 12.5109L32.5918 12.5834V12.6857V13.0566V13.1586L32.5205 13.2314L20.6974 25.2783H26.5809L38.6699 12.8257L26.5818 0.510525H20.699L32.5202 12.5109Z" fill="#60CDB7"/>
<path fill-rule="evenodd" clip-rule="evenodd" d="M43.2475 21.9683C43.1618 21.9683 43.0923 21.8988 43.0923 21.8131V1.34956C43.0923 1.26383 43.1618 1.19434 43.2475 1.19434H45.9955C46.0812 1.19434 46.1507 1.26383 46.1507 1.34956V9.79245C46.5354 9.08075 47.1509 8.49409 47.9973 8.03245C48.8436 7.55156 49.7958 7.31113 50.8537 7.31113C52.6233 7.31113 53.9698 7.84971 54.8931 8.92687C55.8164 9.98482 56.278 11.514 56.278 13.5145V21.8131C56.278 21.8988 56.2085 21.9683 56.1228 21.9683H53.3748C53.2891 21.9683 53.2196 21.8988 53.2196 21.8131V13.9473C53.2196 12.7547 52.9311 11.8314 52.354 11.1774C51.777 10.5234 50.9787 10.1964 49.9593 10.1964C48.9013 10.1964 47.9973 10.5523 47.2471 11.264C46.5161 11.9757 46.1507 13.0047 46.1507 14.3512V21.8131C46.1507 21.8988 46.0812 21.9683 45.9955 21.9683H43.2475ZM56.8836 21.9683C56.7979 21.9683 56.7284 21.8988 56.7284 21.8131V19.4691C56.7284 19.3834 56.7979 19.3139 56.8836 19.3139H61.0742C61.1599 19.3139 61.2294 19.2444 61.2294 19.1587V11.264C61.2294 10.6292 60.9216 10.3118 60.306 10.3118H57.2875C57.2018 10.3118 57.1323 10.2423 57.1323 10.1566V7.81258C57.1323 7.72685 57.2018 7.65736 57.2875 7.65736H60.8543C62.0468 7.65736 62.9125 7.93627 63.4511 8.49409C64.0088 9.03267 64.2877 9.89825 64.2877 11.0908V19.1587C64.2877 19.2444 64.3573 19.3139 64.4429 19.3139H68.6336C68.7192 19.3139 68.7888 19.3834 68.7888 19.4691V21.8131C68.7888 21.8988 68.7192 21.9683 68.6336 21.9683H56.8836ZM73.1601 21.9686C72.6395 21.9686 72.1148 21.8967 71.6506 21.6612C71.5376 21.6038 71.4262 21.5427 71.3165 21.4778C70.374 20.9007 69.6239 20.0545 69.066 18.9387C68.5274 17.8232 68.2582 16.4478 68.2582 14.8128C68.2582 13.1779 68.537 11.8025 69.0949 10.6869C69.6527 9.57125 70.4029 8.73452 71.3454 8.17671C72.3071 7.59965 73.3747 7.31113 74.5481 7.31113C75.6445 7.31113 76.5485 7.52271 77.2602 7.94588C77.9719 8.34983 78.5009 8.86918 78.8472 9.50393V1.34956C78.8472 1.26383 78.9167 1.19434 79.0024 1.19434H81.7502C81.8359 1.19434 81.9055 1.26383 81.9055 1.34956V21.8131C81.9055 21.8988 81.8359 21.9683 81.7502 21.9683H79.1755C79.0898 21.9683 79.0202 21.8988 79.0202 21.8131V19.9695C79.0202 19.9103 78.9721 19.8621 78.9128 19.8621C78.8725 19.8621 78.8357 19.8848 78.8167 19.9203C78.4338 20.643 77.8958 21.22 77.2025 21.6509V21.6509C76.8119 21.9007 76.3399 21.9686 75.8763 21.9686H73.1601ZM131.912 21.9686C132.424 21.9686 132.955 21.9026 133.363 21.5933V21.5933C133.978 21.1267 134.494 20.5701 134.911 19.9228C134.935 19.8851 134.977 19.8621 135.021 19.8621C135.093 19.8621 135.151 19.9203 135.151 19.9922V21.8131C135.151 21.8988 135.221 21.9683 135.307 21.9683H137.853C137.939 21.9683 138.008 21.8988 138.008 21.8131V13.1682C138.008 11.3409 137.527 9.90787 136.565 8.86917C135.604 7.83048 134.065 7.31113 131.949 7.31113C130.198 7.31113 128.746 7.75353 127.592 8.63835C126.501 9.47079 125.863 10.5968 125.679 12.0163C125.667 12.1075 125.739 12.1872 125.831 12.1872H128.595C128.667 12.1872 128.729 12.1381 128.748 12.0692C128.948 11.3417 129.313 10.8136 129.843 10.4849C130.42 10.1195 131.122 9.93673 131.949 9.93673C133.949 9.93673 134.95 11.0139 134.95 13.1682V13.3304C134.95 13.4161 134.88 13.4856 134.794 13.4856H131.256C129.371 13.4856 127.91 13.8799 126.871 14.6686C125.851 15.4572 125.342 16.5536 125.342 17.9577C125.342 18.7464 125.534 19.4773 125.919 20.1505C126.303 20.8046 126.88 21.3336 127.65 21.7375V21.7375C128.003 21.9141 128.401 21.9686 128.795 21.9686H131.912ZM103.082 21.9686C103.594 21.9686 104.124 21.9026 104.532 21.5933V21.5933C105.416 21.0179 105.642 20.6451 105.962 20.1175C106 20.0551 106.04 19.9905 106.081 19.9231C106.105 19.8851 106.146 19.8621 106.191 19.8621C106.263 19.8621 106.321 19.9203 106.321 19.9922V21.8131C106.321 21.8988 106.391 21.9683 106.476 21.9683H109.023C109.108 21.9683 109.178 21.8988 109.178 21.8131V13.1682C109.178 11.3409 108.697 9.90787 107.735 8.86917C106.773 7.83048 105.235 7.31113 103.119 7.31113C101.368 7.31113 99.9159 7.75353 98.7619 8.63835C97.6704 9.47079 97.0327 10.5968 96.8486 12.0163C96.8368 12.1075 96.9087 12.1872 97.0007 12.1872H99.7652C99.8368 12.1872 99.8987 12.1381 99.9178 12.0692C100.118 11.3417 100.483 10.8136 101.012 10.4849C101.589 10.1195 102.292 9.93673 103.119 9.93673C105.119 9.93673 106.119 11.0139 106.119 13.1682V13.3304C106.119 13.4161 106.05 13.4856 105.964 13.4856H102.426C100.541 13.4856 99.0793 13.8799 98.0406 14.6686C97.0211 15.4572 96.5113 16.5536 96.5113 17.9577C96.5113 18.7464 96.7037 19.4773 97.0884 20.1505C97.4731 20.8046 98.0502 21.3336 98.8196 21.7375V21.7375C99.1725 21.9141 99.5701 21.9686 99.9647 21.9686H103.082ZM91.3329 21.9686C91.8267 21.9686 92.3242 21.9046 92.7699 21.6922C93.1983 21.4882 93.5932 21.2339 93.9547 20.9296C94.9992 20.0318 95.7033 18.9418 96.0669 17.66C96.0946 17.5626 96.0204 17.4672 95.9192 17.4672H93.1383C93.074 17.4672 93.0166 17.5071 92.992 17.5666C92.7407 18.1741 92.3595 18.6603 91.8484 19.0253C91.3292 19.3907 90.6173 19.5736 89.7133 19.5736C88.6746 19.5736 87.7706 19.2369 87.0012 18.5637C86.2644 17.9005 85.8363 16.9462 85.7167 15.7006C85.7082 15.6109 85.7796 15.5342 85.8696 15.5342H96.3204C96.4019 15.5342 96.4696 15.4712 96.4745 15.3899C96.4874 15.1783 96.4938 14.9859 96.4938 14.8128V14.1781C96.4938 12.9278 96.2149 11.7833 95.657 10.7446C95.1184 9.7059 94.349 8.87878 93.3487 8.26326C92.3485 7.6285 91.1559 7.31113 89.7711 7.31113C88.367 7.31113 87.1263 7.6285 86.0491 8.26326C84.9911 8.89803 84.1641 9.78285 83.5677 10.9177C82.9906 12.0526 82.7021 13.3702 82.7021 14.8705C82.7021 16.3517 83.0002 17.6499 83.5966 18.7657C84.1928 19.8812 85.02 20.7565 86.0779 21.3912C86.2819 21.5098 86.4919 21.6171 86.7079 21.7129C87.1454 21.9069 87.6264 21.9686 88.105 21.9686H91.3329ZM75.154 19.4004C76.2503 19.4004 77.1545 19.0157 77.8662 18.2463C78.5971 17.4769 78.9625 16.3325 78.9625 14.8128C78.9625 13.274 78.5971 12.1295 77.8662 11.3794C77.1545 10.6099 76.2503 10.2253 75.154 10.2253C74.0576 10.2253 73.1439 10.6099 72.413 11.3794C71.7013 12.1488 71.3454 13.3029 71.3454 14.8417C71.3454 16.3613 71.7013 17.5057 72.413 18.2752C73.1439 19.0253 74.0576 19.4004 75.154 19.4004ZM89.7422 9.96557C88.7997 9.96557 87.9629 10.2541 87.232 10.8312C86.5462 11.3546 86.089 12.0812 85.8605 13.0111C85.8369 13.1066 85.9106 13.1971 86.009 13.1971H93.2672C93.3579 13.1971 93.4295 13.1197 93.4187 13.0297C93.3133 12.1446 92.9439 11.4213 92.3102 10.86C91.6368 10.2637 90.7809 9.96557 89.7422 9.96557ZM102.253 19.7467C103.503 19.7467 104.436 19.3716 105.052 18.6215C105.657 17.8879 106 16.9709 106.08 15.8701C106.087 15.7817 106.016 15.7073 105.927 15.7073H102.744C101.647 15.7073 100.868 15.89 100.406 16.2555C99.964 16.6017 99.7429 17.0922 99.7429 17.7269C99.7429 18.3618 99.964 18.8619 100.406 19.2273C100.868 19.5736 101.484 19.7467 102.253 19.7467ZM112.206 21.9683C112.133 21.9683 112.069 21.9174 112.054 21.8462L109.005 7.84559C108.984 7.74883 109.058 7.65736 109.157 7.65736H111.834C111.91 7.65736 111.975 7.71175 111.987 7.78621L113.556 16.8852C113.585 17.0544 113.827 17.0581 113.861 16.8898L115.72 7.78155C115.734 7.70926 115.798 7.65736 115.872 7.65736H118.907C118.981 7.65736 119.045 7.70926 119.059 7.78155L120.918 16.8898C120.952 17.0581 121.194 17.0544 121.223 16.8852L122.792 7.78621C122.804 7.71175 122.869 7.65736 122.945 7.65736H125.622C125.721 7.65736 125.795 7.74885 125.774 7.84559L122.725 21.8462C122.709 21.9174 122.646 21.9683 122.573 21.9683H119.679C119.606 21.9683 119.543 21.9168 119.528 21.8449L117.541 12.3642C117.507 12.1997 117.272 12.1997 117.238 12.3642L115.251 21.8449C115.236 21.9168 115.173 21.9683 115.1 21.9683H112.206ZM131.083 19.7467C132.334 19.7467 133.266 19.3716 133.882 18.6215C134.487 17.8879 134.83 16.9709 134.911 15.8701C134.917 15.7816 134.846 15.7073 134.758 15.7073H131.574C130.477 15.7073 129.698 15.89 129.237 16.2555C128.794 16.6017 128.573 17.0922 128.573 17.7269C128.573 18.3618 128.794 18.8619 129.237 19.2273C129.698 19.5736 130.314 19.7467 131.083 19.7467ZM140.199 28.3159C140.086 28.3159 140.011 28.1995 140.058 28.0967L143.264 21.0046C143.311 20.9018 143.236 20.7854 143.123 20.7854H142.629C142.567 20.7854 142.511 20.7481 142.487 20.6907L137.049 7.87319C137.006 7.77082 137.081 7.65736 137.192 7.65736H140.172C140.235 7.65736 140.292 7.69554 140.315 7.75397L144.407 17.7887C144.459 17.9161 144.638 17.918 144.693 17.7918L149.036 7.75096C149.06 7.69415 149.116 7.65736 149.178 7.65736H152.041C152.153 7.65736 152.228 7.7725 152.183 7.87509L143.231 28.2232C143.206 28.2795 143.15 28.3159 143.089 28.3159H140.199ZM61.0622 1.99931C61.0622 1.91359 61.1318 1.84409 61.2175 1.84409H62.4285C63.4573 1.84409 64.2911 2.67802 64.2911 3.70672V4.76074C64.2911 4.84647 64.2217 4.91596 64.1359 4.91596H61.2175C61.1318 4.91596 61.0622 4.84647 61.0622 4.76074V1.99931Z" fill="#F0F8F7"/>
</svg>
